<?xml version="1.0" encoding="utf-8"?>
<!-- Generator: Adobe Illustrator 27.5.0, SVG Export Plug-In . SVG Version: 6.00 Build 0)  -->
<svg version="1.1" id="Capa_1" xmlns="http://www.w3.org/2000/svg" xmlns:xlink="http://www.w3.org/1999/xlink" x="0px" y="0px"
	 viewBox="0 0 425.2 425.2" style="enable-background:new 0 0 425.2 425.2;" xml:space="preserve">
<rect x="-0.023" y="0.002" style="fill:#B2DBEE;" width="425.195" height="425.196"/>
<path style="fill:#FFFFFF;" d="M167.322,77.559c-0.817,0-1.613,0.082-2.394,0.208c0-0.07,0.01-0.138,0.01-0.208
	c0-8.334-6.756-15.09-15.09-15.09c-6.814,0-12.57,4.521-14.441,10.727c-1.873-6.205-7.627-10.727-14.443-10.727
	c-8.334,0-15.089,6.756-15.089,15.09c0,0.172,0.021,0.338,0.026,0.51c-1.226-0.322-2.503-0.51-3.83-0.51
	c-8.335,0-15.089,6.756-15.089,15.089s6.754,15.089,15.089,15.089c1.386,0,2.723-0.203,3.998-0.553
	c1.113,7.236,7.348,12.782,14.895,12.782c6.816,0,12.57-4.521,14.443-10.726c1.871,6.205,7.627,10.726,14.441,10.726
	c7.44,0,13.607-5.389,14.848-12.473c0.855,0.15,1.73,0.243,2.627,0.243c8.333,0,15.09-6.756,15.09-15.089
	S175.655,77.559,167.322,77.559z"/>
<path style="fill:#FFFFFF;" d="M271.385,146.041c0,8.172,6.624,14.795,14.795,14.795c5.161,0,9.7-2.646,12.347-6.651
	c2.637,4.069,7.208,6.77,12.418,6.77c5.054,0,9.51-2.537,12.18-6.403c2.668,3.866,7.125,6.403,12.177,6.403
	c6.892,0,12.665-4.718,14.311-11.095c0.162,0.006,0.32,0.025,0.484,0.025c8.172,0,14.795-6.624,14.795-14.795
	c0-8.172-6.623-14.795-14.795-14.795c-4.657,0-8.806,2.156-11.518,5.52c0.292-1.16,0.465-2.369,0.465-3.621
	c0-8.17-6.624-14.795-14.795-14.795c-3.867,0-7.375,1.496-10.012,3.924c-3.287-8.486-11.523-14.506-21.172-14.506
	c-12.539,0-22.705,10.165-22.705,22.704c0,5.958,2.299,11.377,6.053,15.427C273.336,137.659,271.385,141.618,271.385,146.041z"/>
<g>
	<ellipse style="fill:#57C1E9;" cx="199.901" cy="356.634" rx="165.061" ry="20.222"/>
	<g>
		<path style="fill:#57C1E9;" d="M396.537,366.402c0,3.994-20.188,7.232-45.086,7.232c-24.9,0-45.088-3.238-45.088-7.232
			c0-3.994,20.188-7.23,45.088-7.23C376.35,359.172,396.537,362.408,396.537,366.402z"/>
		<g>
			<g>
				<g>
					<g>
						<path style="fill:#FBB88E;" d="M327.889,238.045c8.864-16.229,7.703-22.357,7.703-22.357l-7.709-3.426
							c-2.386,10.396-4.77,17.157-8.398,25.54C320.508,238.277,324.442,241.473,327.889,238.045z"/>
					</g>
					<g>
						<path style="fill:#F8B78F;" d="M290.695,217.877c0.396-2.603,1.658-1.301,3.156-0.891c1.147,0.318,0.949,0.383,2.131,0.666
							c0,0-1.014-0.295-1.375-1.211c-0.358-0.917,0.658-1.167,0.658-1.167l2.288,1.835c0.468,0.385,0.965,0.74,1.413,1.152
							c0.508,0.467,0.968,1.32,1.087,2c0.214,1.225-0.66,2.248-1.867,2.367c-1.067,0.105-5.011-0.617-6.595-1.807
							C291.592,220.822,289.539,218.742,290.695,217.877z"/>
						<path style="fill:#F8B78F;" d="M323.994,230.609l-24.568-11.201l-1.277,2.838l21.336,15.557c0,0,5.742,4.543,8.404,0.242
							C327.889,238.045,330.166,233.688,323.994,230.609z"/>
					</g>
				</g>
				<path style="fill:#234185;" d="M323.691,221.156c0,1.939,3.768,3.99,6.909,5.055c1.524,0.518,3.231,1.055,4.956,1.342
					c4.625-13.618,6.304-19.7,6.558-22.056c0,0,0.288-8.162-6.825-8.424c0,0-5.197-0.684-6.617,4.047
					C328.672,201.12,325.573,212.194,323.691,221.156z"/>
			</g>
			<g>
				<polygon style="fill:#3B4682;" points="331.431,254.273 333.514,305.313 338.025,358.113 342.705,358.113 347.223,306.559 
					354.127,254.273 				"/>
				<path style="fill:#2E395C;" d="M343.438,362.627l-10.522,2.315c0,0-7.35,1.082-8.641-0.795c0,0-0.182-0.406,0.307-0.633
					l13.443-5.4h4.68C342.705,358.113,343.791,359.939,343.438,362.627z"/>
				<path style="fill:#2E395C;" d="M358.534,362.111l10.52,2.314c0,0,7.35,1.084,8.641-0.795c0,0,0.181-0.406-0.308-0.633
					l-13.442-5.4h-4.679C359.267,357.598,358.18,359.424,358.534,362.111z"/>
				<polygon style="fill:#475FA4;" points="365.17,254.273 338.894,254.273 346.02,271.945 350.438,308.463 359.358,357.598 
					364.123,357.598 363.66,302.814 364.478,270.852 				"/>
			</g>
			<g>
				<rect x="343.103" y="182.286" style="fill:#F8B78F;" width="9.406" height="13.066"/>
			</g>
			<g>
				<path style="fill:#F6A47A;" d="M343.103,188.356v-6.07h9.406v6.533C349.147,189.171,346.052,189.493,343.103,188.356z"/>
			</g>
			<path style="fill:#F8B78F;" d="M367.326,200.143c-2.304-3.563-5.924-4.527-5.924-4.527l-8.676-3.215h-8.279l-8.672,3.215
				c0,0-3.62,0.965-5.924,4.527H367.326z"/>
			<path style="fill:#2D55A6;" d="M342.192,193.235l-7.723,2.645c0,0-5.135,1.891-5.135,5.053l2.189,13.076l-3.318,46.63
				c19.906,5.084,39.12,0.498,39.12,0.498l-2.126-48.782l3.826-7.605c0-6.404-4.857-8.477-4.857-8.477l-9.384-3.109
				C354.786,193.163,345.273,198.436,342.192,193.235z"/>
			<g>
				<g>
					<path style="fill:#FBB88E;" d="M368.087,267.332c0,0,1.572-26.182-4.511-49.184l8.418-0.555c0,0,5.152,20.721,0.612,49.381
						L368.087,267.332z"/>
					<g>
						<polygon style="fill:#F8B78F;" points="371.744,271.313 372.787,265.904 368.406,264.734 367.743,268.109 						"/>
						<g>
							<g>
								<path style="fill:#FBB88E;" d="M367.092,271.455l-0.551,2.67c-2.038-0.334-0.932-3.545-0.932-3.545s1.707-3.938,5.602-2.555
									c1.27,0.41,1.361,4.121,1.361,4.121c-0.223,1.406-0.991,3.49-0.991,3.49c-0.463,0.873-1.4,0.25-1.4,0.25
									c-0.633,0.939-1.286,0.02-1.286,0.02c-0.837,0.75-1.244-0.26-1.244-0.26c-1.085,0.768-1.482-0.588-1.482-0.588
									L367.092,271.455z"/>
							</g>
						</g>
					</g>
				</g>
				<path style="fill:#2D55A6;" d="M355.828,210.304c-3.141-9.75,3.117-12.047,3.117-12.047c6.637-3.609,9.512,1.955,9.512,1.955
					c0.887,1.891,3.357,9.164,5.313,19.335c-3.227,3.082-8.41,6.045-12.504,6.174L355.828,210.304z"/>
			</g>
			<path style="fill:#AF6C40;" d="M335.806,169.013c-0.292-1.387-0.482-1.859-0.792-5.18c-0.146-1.568,1.201-6.867,3.133-7.227
				c2.678-0.498,2.661,7.006,2.985,9.016c0.448,2.768,0.005,5.832-0.309,8.604c-0.112,1,0.07,2.967-0.999,3.533
				c-0.915,0.484-0.741,0.621-1.284-0.051C337.232,176.085,336.22,170.979,335.806,169.013z"/>
			<path style="fill:#F8B78F;" d="M338.351,182.102c1.411,4.092,3.387,5.09,3.387,5.09l2.564,0.285
				c1.438-0.305,3.893-1.102,3.893-1.102c5.601-2.432,7.522-2.469,8.467-5.564c0.029-0.096,2.726-15.904,2.726-15.904
				c0.077-8.109-8.485-9.092-9.775-9.197c-1.282-0.186-9.488-1.758-11.225,6.164C338.387,161.874,335.622,171.116,338.351,182.102z"
				/>
			<path style="fill:#BE7546;" d="M356.9,171.642c-1.959,2.287-3.102,5.803-6.279,6.84c-1.545,0.506-2.675,0.387-4.01-0.543
				c-2.048-1.426-3.744,0.363-5.902-0.152c-1.76-0.42-2.793-2.537-3.533-4.402c0.08,2.658,0.403,8.865,1.175,11.971
				c1.411,4.092,3.387,5.09,3.387,5.09l2.564,0.285c1.438-0.305,3.893-1.102,3.893-1.102c5.601-2.432,7.522-2.469,8.467-5.564
				c0.018-0.057,0.986-8.971,1.765-13.523C357.885,170.753,357.369,171.097,356.9,171.642z"/>
			<path style="fill:#AF6C40;" d="M354.451,160.194c0.501,0.49,2.247,5.525,2.247,5.525s-1.256,6.143-1.527,9.551l1.592,0.086
				c0,0,0.131-2.432,1.307-2.732l-1.326,7.729c6.665-4.58,6.8-19.512,6.8-19.512L354.451,160.194z"/>
			<path style="fill:#F8B78F;" d="M356.365,173.899c0,0,1.17-3.221,3.561-1.564c0,0,1.084,0.711-0.002,2.893
				c0,0-1.577,3.137-3.898,1.662L356.365,173.899z"/>
			<path style="fill:#BE7546;" d="M364.463,157.403c-0.354,1.119-0.548,2.346-0.92,3.438c-0.508,1.49-0.674,1.666-2.193,1.668
				c-1.342,0.002-2.615-0.75-3.596-1.375c-2.051-1.309-3.135,0.434-5.313,0.563c-1.516,0.09-2.477,0.896-3.871,1.127
				c-1.568,0.26-2.534-0.533-3.756-1.279c-1.947-1.189-4.315-0.287-6.498,0.021c-5.317,0.75-8.125-5.332-6.867-9.998
				c0,0,1.227,2.176,3.422,2.48c0,0-5.305-4.863,1.028-11.195c0,0,2.481,7.332,11.907,6.832
				C347.807,149.684,363.275,147.852,364.463,157.403z"/>
		</g>
	</g>
	<g>
		<g>
			<g>
				<path style="fill:#7F58A5;" d="M223.171,302.672H79.329c-15.119,0-27.373,12.254-27.373,27.371
					c0,15.117,12.254,27.371,27.373,27.371h143.842V302.672z"/>
				<path style="fill:#FFF6ED;" d="M223.171,311.529H81.534c-10.225,0-18.514,8.289-18.514,18.514
					c0,10.225,8.289,18.513,18.514,18.513h141.637V311.529z"/>
				<path style="fill:#A380B1;" d="M78.747,311.762c-8.898,1.349-15.727,9.007-15.727,18.281c0,9.274,6.828,16.934,15.727,18.281
					V311.762z"/>
				<g>
					
						<line style="fill:none;stroke:#E8D9D1;stroke-width:1.1973;stroke-miterlimit:10;" x1="82.386" y1="319.123" x2="216.909" y2="319.123"/>
					
						<line style="fill:none;stroke:#E8D9D1;stroke-width:1.1973;stroke-miterlimit:10;" x1="82.386" y1="326.402" x2="216.909" y2="326.402"/>
					
						<line style="fill:none;stroke:#E8D9D1;stroke-width:1.1973;stroke-miterlimit:10;" x1="82.386" y1="333.684" x2="216.909" y2="333.684"/>
					
						<line style="fill:none;stroke:#E8D9D1;stroke-width:1.1973;stroke-miterlimit:10;" x1="82.386" y1="340.963" x2="216.909" y2="340.963"/>
				</g>
			</g>
			<g>
				<path style="fill:#477BBE;" d="M199.876,247.945H56.032c-15.115,0-27.369,12.256-27.369,27.371
					c0,15.117,12.254,27.371,27.369,27.371h143.844V247.945z"/>
				<path style="fill:#FFF6ED;" d="M199.876,256.805H58.239c-10.223,0-18.514,8.287-18.514,18.512
					c0,10.225,8.291,18.514,18.514,18.514h141.637V256.805z"/>
				<path style="fill:#4C5A9C;" d="M55.452,257.037c-8.899,1.347-15.727,9.006-15.727,18.279c0,9.275,6.828,16.934,15.727,18.281
					V257.037z"/>
				<g>
					
						<line style="fill:none;stroke:#E8D9D1;stroke-width:1.1973;stroke-miterlimit:10;" x1="59.091" y1="264.396" x2="193.614" y2="264.396"/>
					
						<line style="fill:none;stroke:#E8D9D1;stroke-width:1.1973;stroke-miterlimit:10;" x1="59.091" y1="271.678" x2="193.614" y2="271.678"/>
					
						<line style="fill:none;stroke:#E8D9D1;stroke-width:1.1973;stroke-miterlimit:10;" x1="59.091" y1="278.957" x2="193.614" y2="278.957"/>
					
						<line style="fill:none;stroke:#E8D9D1;stroke-width:1.1973;stroke-miterlimit:10;" x1="59.091" y1="286.236" x2="193.614" y2="286.236"/>
				</g>
			</g>
			<g>
				<path style="fill:#5F4DA0;" d="M70.884,193.235h143.844c15.115,0,27.369,12.254,27.369,27.371s-12.254,27.372-27.369,27.372
					H70.884V193.235z"/>
				<path style="fill:#FFF6ED;" d="M70.884,202.093H212.52c10.223,0,18.514,8.289,18.514,18.514
					c0,10.226-8.291,18.513-18.514,18.513H70.884V202.093z"/>
				<path style="fill:#4A397F;" d="M215.308,202.325c8.898,1.348,15.727,9.006,15.727,18.281c0,9.274-6.828,16.933-15.727,18.28
					V202.325z"/>
				<g>
					
						<line style="fill:none;stroke:#E8D9D1;stroke-width:1.1973;stroke-miterlimit:10;" x1="211.669" y1="209.686" x2="77.146" y2="209.686"/>
					
						<line style="fill:none;stroke:#E8D9D1;stroke-width:1.1973;stroke-miterlimit:10;" x1="211.669" y1="216.967" x2="77.146" y2="216.967"/>
					
						<line style="fill:none;stroke:#E8D9D1;stroke-width:1.1973;stroke-miterlimit:10;" x1="211.669" y1="224.247" x2="77.146" y2="224.247"/>
					
						<line style="fill:none;stroke:#E8D9D1;stroke-width:1.1973;stroke-miterlimit:10;" x1="211.669" y1="231.526" x2="77.146" y2="231.526"/>
				</g>
			</g>
		</g>
		<g>
			<g>
				<path style="fill:#F04E4F;" d="M170.419,279.729c0,42.904,34.779,77.685,77.684,77.685c42.904,0,77.685-34.78,77.685-77.685
					c0-42.903-34.781-77.686-77.685-77.686C205.198,202.044,170.419,236.826,170.419,279.729z"/>
				
					<ellipse transform="matrix(0.9732 -0.2298 0.2298 0.9732 -57.6316 64.4853)" style="fill:#DF3B47;" cx="248.103" cy="279.729" rx="66.426" ry="66.426"/>
				<path style="fill:#FFFFFF;" d="M191.421,279.729c0,31.306,25.377,56.685,56.682,56.685c31.305,0,56.684-25.379,56.684-56.685
					c0-31.306-25.379-56.683-56.684-56.683C216.798,223.047,191.421,248.424,191.421,279.729z"/>
				<path style="fill:#C3DAE6;" d="M206.067,279.729c0,23.217,18.82,42.036,42.035,42.036c23.217,0,42.037-18.819,42.037-42.036
					c0-23.216-18.82-42.036-42.037-42.036C224.888,237.693,206.067,256.514,206.067,279.729z"/>
				<path style="fill:#F04E4F;" d="M214.98,279.729c0,18.294,14.83,33.124,33.123,33.124c18.293,0,33.123-14.83,33.123-33.124
					c0-18.294-14.83-33.123-33.123-33.123C229.81,246.606,214.98,261.435,214.98,279.729z"/>
				<path style="fill:#DF3B47;" d="M225.093,279.729c0,12.708,10.303,23.011,23.01,23.011c12.709,0,23.01-10.303,23.01-23.011
					c0-12.707-10.301-23.009-23.01-23.009C235.395,256.721,225.093,267.022,225.093,279.729z"/>
				<path style="fill:#FFFFFF;" d="M233.06,279.729c0,8.31,6.734,15.044,15.043,15.044c8.309,0,15.043-6.734,15.043-15.044
					c0-8.309-6.734-15.043-15.043-15.043C239.794,264.686,233.06,271.421,233.06,279.729z"/>
			</g>
			<g>
				
					<line style="fill:none;stroke:#214BA0;stroke-width:4.7745;stroke-miterlimit:10;" x1="236.499" y1="271.347" x2="178.958" y2="213.804"/>
				<polygon style="fill:#214BA0;" points="184.218,219.066 162.98,197.827 141.542,199.229 165.22,222.908 				"/>
				<polygon style="fill:#16347A;" points="184.218,219.066 162.98,197.827 164.382,176.388 188.061,200.065 				"/>
				<polygon style="fill:#214BA0;" points="248.103,282.95 224.585,274.75 239.901,259.434 				"/>
				<polygon style="fill:#16347A;" points="248.103,282.95 224.585,274.75 232.243,267.091 				"/>
			</g>
		</g>
	</g>
	<g>
		<g>
			<path style="fill:#F8B78F;" d="M94.06,191.495c-0.254,0.188-1.846,1.23-2.034,1.385c-1.301,1.07-0.53,1.49,0.217,1.059
				c-0.386,0.818-0.325,0.408-0.728,1.283c-0.744,1.613,0.066,2.188,1.15,2.479c1.305,1.047,2.438,0.637,3.633-0.287
				c1.659-1.281,1.307-3.299,0.9-5.277L94.06,191.495z"/>
			<path style="fill:#F8B78F;" d="M101.829,160.59l-8.254,31.775l2.639,2.252l13.693-33.008c0,0,1.816-5.049-2.815-7.08
				C107.092,154.53,104.01,154.047,101.829,160.59z"/>
		</g>
		<g>
			<g>
				<polygon style="fill:#F8B78F;" points="73.442,248.966 73.921,263.009 77.317,263.532 77.317,248.768 				"/>
				<g>
					<path style="fill:#F8B78F;" d="M71.101,272.858c0,0,3.414,1.283,4.404-1.6l1.559-7.97l-3.143-0.28l-1.171,6.053L71.101,272.858
						z"/>
					<path style="fill:#DE417C;" d="M70.774,275.622c3.896-0.444,5.499-2.972,5.499-2.972l1.107-6.046l1.292,5.497l0.421-0.239
						l-0.666-7.119c0,0,0.686-2.002-1.569-3.777c0,0,0.374,0.675-0.247,3.265l-1.411,6.034c0,0-0.365,2.186-2.879,2.514
						c-1.568,0.222,0.192-3.107,0.192-3.107l-3.311,5.749C69.203,275.42,69.305,275.799,70.774,275.622z"/>
				</g>
			</g>
			<path style="fill:#0090BB;" d="M120.944,175.921l-4.649-11.414h-9.36l-4.67,11.414l-25.536,16.808L72.5,261.01h5.898
				l11.221-62.872l26.983-11.467C116.603,186.671,123.899,184.649,120.944,175.921"/>
			<path style="fill:#615096;" d="M120.944,175.921"/>
			<g>
				<polygon style="fill:#F8B78F;" points="104.219,248.044 106.635,261.756 110.031,262.279 108.094,247.847 				"/>
				<g>
					<path style="fill:#F8B78F;" d="M103.814,271.605c0,0,3.414,1.283,4.404-1.6l1.559-7.97l-3.143-0.28l-1.171,6.053
						L103.814,271.605z"/>
					<path style="fill:#DE417C;" d="M103.488,274.369c3.896-0.444,5.499-2.972,5.499-2.972l1.107-6.046l1.292,5.497l0.421-0.239
						l-0.666-7.119c0,0,0.686-2.002-1.569-3.777c0,0,0.374,0.675-0.247,3.265l-1.411,6.034c0,0-0.365,2.186-2.879,2.514
						c-1.568,0.222,0.192-3.107,0.192-3.107l-3.311,5.749C101.917,274.167,102.019,274.546,103.488,274.369z"/>
				</g>
			</g>
			<path style="fill:#0090BB;" d="M128.474,164.528h-21.539c0,0,0.958,1.939,5.313,11.393l-22.628,22.217l16.054,63.346l4.815-1.224
				l-7.346-58.748l20.972-9.944c10.642-6.936,6.415-15.647,6.415-15.647S129.139,168.839,128.474,164.528"/>
		</g>
		<path style="fill:#B07341;" d="M131.587,107.09c-3.692,4.969-1.832,4.439-2.631,10.162c-0.709,5.07-7.043,12.699-12.814,14.199
			c-5.299,1.379-7.654,2.012-9.25,7.445c-1.301,4.428-5.444,5.92-9.75,4.248c-2.176-0.844-4.176-2.465-6.494-2.754
			c-2.081-0.26-4.606,0.279-6.762,0.311c-5.445,0.08-5.577-5.09-2-8.307c1.99-1.789,3.892-2.68,4.813-5.25
			c0.736-2.061,0.504-4.246,1.443-6.248c1.113-2.369,2.705-3.752,5.014-4.813c2.094-0.961,3.83-1.586,4.682-3.938
			c0.721-1.996-0.036-4.303,0.605-6.25c0.652-1.978,2.955-2.855,3.699-4.75c1.012-2.574,0.426-4.471,1.938-7
			c1.088-1.82,1.804-3.961,3.319-5.512c4.886-5.002,15.282-2.686,20.747,0.115C134.252,91.881,135.339,102.039,131.587,107.09z"/>
		<g>
			<path style="fill:#FBB88E;" d="M100.618,132.403c0.76,9.791,1.412,20.898,1.249,30.031c1.126,0.049,6.489,1.908,8.372-2.574
				c1.319-17.535,0.656-24.014,0.656-24.014s0.559-9.879-4.795-9.883C106.101,125.963,100.017,128.522,100.618,132.403z"/>
		</g>
		<rect x="107.767" y="127.272" style="fill:#F8B78F;" width="18.5" height="14.961"/>
		<path style="fill:#B07341;" d="M105.979,90.137c-0.947,1.848-1.547,4.508-0.781,6.467c1.696,4.342,10.012,5.789,12.479,1.621
			c1.84-3.109,0.982-7.719-1.316-10.367C113.165,84.18,108.009,86.176,105.979,90.137z"/>
		<path style="fill:#F8B78F;" d="M120.767,128.204c0,0-0.302,16.146,10.941,12.572c0,0,8.684-8.129-0.143-13.889L120.767,128.204z"
			/>
		<g>
			<rect x="113.18" y="115.705" style="fill:#F8B78F;" width="8.691" height="9.914"/>
		</g>
		<g>
			<path style="fill:#F6A47A;" d="M113.18,120.254v-4.549h8.691v5.436C118.8,121.168,115.845,121.149,113.18,120.254z"/>
		</g>
		<path style="fill:#F8B78F;" d="M101.138,129.905c2.06-3.187,5.297-4.051,5.297-4.051l7.759-2.875h7.405l7.754,2.875
			c0,0,3.238,0.863,5.298,4.051H101.138z"/>
		<path style="fill:#F8B78F;" d="M124.679,112.961c-0.344,0.715-0.807,1.371-1.439,1.935c-2.816,2.508-6.517,4.195-10.326,4.049
			c-9.774-4.727-5.813-23.746-5.813-23.746c1.848-9.104,9.684-8.781,9.684-8.781c5.931-0.027,11.225,2.977,11.894,9.25
			c0.257,2.402-0.304,4.949-0.516,7.334c-0.155,1.754-0.438,3.494-1.064,5.146C126.46,109.836,125.454,111.342,124.679,112.961z"/>
		<path style="fill:#B07341;" d="M108.386,87.307c0,0,0.191,12.938,11.738,13.883c0,0,6.228,0.613,5.168,6.58
			c0,0,0.359-4.621,4.061-3.537c0,0,2.678-3.041,2.316-9.186c0,0,0.607-6.898-9.096-9.9
			C122.573,85.147,113.63,81.366,108.386,87.307z"/>
		<path style="fill:#F8B78F;" d="M125.872,105.721c0,0,1.24-2.938,3.604-1.643c0,0,1.407,0.83,0.282,3.121
			c0,0-1.513,3.031-3.886,1.76V105.721z"/>
		<path style="fill:#475FA4;" d="M105.173,165.192l2.594-9.514l-1.277-7.006c-5.039-4.75-3.278-10.75-3.278-10.75
			c4.842-8.791,5.964-13.092,5.964-13.092l2.598-0.955c-2.881,9.883,1.407,12.646,1.407,12.646
			c5.143-0.541,10.435-12.795,10.435-12.795l1.516,0.561c-1.899,6.061-1.506,10.086,1.389,14.32c1.095,1.6,3.315,1.936,5.189,2.168
			l-0.032,0.049c0,0-2.657,6.877-3.781,14.854c-0.354,2.508,0.511,7.053,1.659,9.475
			C129.554,165.153,119.454,168.084,105.173,165.192z"/>
		<g>
			<path style="fill:#FBB88E;" d="M126.699,135.625c2.927,9.375,4.8,17.014,6.679,25.953c1.108-0.203,6.752,0.41,7.586-4.379
				c-2.629-17.387-4.722-23.553-4.722-23.553s-1.225-6.834-6.308-5.834C129.935,127.813,124.768,129.163,126.699,135.625z"/>
		</g>
		<g>
			<path style="fill:#F8B78F;" d="M130.601,201.741c-1.945-0.65-1.34-1.627-0.964-3.133c0.291-1.154,0.361-0.959,0.617-2.145
				c0,0-0.272,1.018-1.181,1.4c-0.905,0.381-1.179-0.631-1.179-0.631l1.779-2.33c0.374-0.477,0.717-0.98,1.118-1.439
				c0.457-0.52,1.299-0.998,1.975-1.133c1.22-0.242,2.264,0.607,2.41,1.811c0.131,1.066-0.248,2.164-0.389,3.213
				C134.788,197.354,133.669,201.526,130.601,201.741z"/>
			<path style="fill:#F8B78F;" d="M132.93,159.79l-0.952,32.816l3.075,1.605l5.978-35.23c0,0,0.645-5.328-4.324-6.275
				C136.706,152.706,133.594,152.924,132.93,159.79z"/>
		</g>
	</g>
</g>
</svg>
